<?xml version="1.0" encoding="utf-8"?>
<!-- Generator: Adobe Illustrator 27.9.0, SVG Export Plug-In . SVG Version: 6.00 Build 0)  -->
<svg version="1.1" xmlns="http://www.w3.org/2000/svg" xmlns:xlink="http://www.w3.org/1999/xlink" x="0px" y="0px"
	 viewBox="0 0 600 600" style="enable-background:new 0 0 600 600;" xml:space="preserve">
<style type="text/css">
	.st0{fill:none;stroke:#3EB1C8;stroke-width:2;stroke-linecap:round;}
	.st1{fill:url(#SVGID_1_);}
	.st2{fill:url(#SVGID_00000011712637582121759110000013168518187864670592_);}
	.st3{fill:url(#SVGID_00000013875780790649387050000014925582386152498838_);}
	.st4{fill:#3EB1C8;}
</style>
<g id="Layer_1">
	<path class="st0" d="M287.19,223.18c0.79-0.46,1.6-0.89,2.41-1.31"/>
	<path class="st0" d="M312.81,493.89c-0.79,0.46-1.6,0.89-2.41,1.31"/>
	<path class="st0" d="M466.38,283.25l-104.06-60.08c-10.68-6.17-24.15-8.79-36.2-8.97c-12.11-0.18-25.53,2.06-36.53,7.66l-2.41,1.31
		l-153.56,88.66"/>
	<line class="st0" x1="236.89" y1="371.46" x2="237.68" y2="371.92"/>
	<path class="st0" d="M236.89,493.43V371.46l0.79,0.45c20.75,11.98,54.39,11.98,75.13,0l221.63-127.96c3.97-2.29,7.8-5.24,10.7-8.87
		c2.91-3.65,4.86-8.01,4.86-12.82"/>
	<path class="st0" d="M194.25,468.81V346.85l-128.69-74.3c-3.97-2.29-7.8-5.24-10.7-8.87c-2.91-3.65-4.86-8.01-4.86-12.82"/>
	<path class="st0" d="M237.68,493.89c10.68,6.17,24.15,8.79,36.2,8.97c12.11,0.18,25.53-2.06,36.53-7.67l2.41-1.31l221.63-127.96
		c3.97-2.29,7.8-5.24,10.7-8.87c2.91-3.65,4.86-8.01,4.86-12.82V222.27c0-4.81-1.95-9.16-4.86-12.82c-2.9-3.63-6.73-6.58-10.7-8.87
		l-172.12-99.37c-20.75-11.98-54.39-11.98-75.13,0L65.56,229.17c-3.97,2.29-7.8,5.24-10.7,8.87c-2.91,3.65-4.86,8.01-4.86,12.82
		v121.97c0,3.05,0.79,5.96,2.16,8.66c2.88,5.66,8.12,9.98,13.4,13.03L237.68,493.89z"/>
</g>
<g id="Layer_3">
	<g id="XMLID_00000052092595242897378280000009635546222285681025_">
		<g>
			<linearGradient id="SVGID_1_" gradientUnits="userSpaceOnUse" x1="236.8936" y1="362.5648" x2="550.004" y2="362.5648">
				<stop  offset="4.528621e-07" style="stop-color:#FFFFFF;stop-opacity:0.2"/>
				<stop  offset="1" style="stop-color:#3EB1C8;stop-opacity:0.2"/>
			</linearGradient>
			<path class="st1" d="M550,222.27v121.97c0,4.81-1.95,9.17-4.87,12.83c-2.89,3.63-6.72,6.57-10.7,8.87L312.81,493.88l-2.41,1.31
				c-11,5.6-24.41,7.84-36.52,7.66c-12.05-0.17-25.51-2.8-36.2-8.97l-0.78-0.45V371.46l0.78,0.46c20.75,11.97,54.4,11.97,75.14,0
				l153.57-88.67l68.05-39.3c3.98-2.29,7.81-5.24,10.7-8.87C548.05,231.43,550,227.08,550,222.27z"/>
			
				<linearGradient id="SVGID_00000180351414776755524460000009547216084173545861_" gradientUnits="userSpaceOnUse" x1="49.9984" y1="202.0339" x2="550.004" y2="202.0339">
				<stop  offset="0" style="stop-color:#3EB1C8;stop-opacity:0.2"/>
				<stop  offset="0.625" style="stop-color:#FFFFFF;stop-opacity:0.2"/>
				<stop  offset="1" style="stop-color:#3EB1C8;stop-opacity:0.2"/>
			</linearGradient>
			<path style="fill:url(#SVGID_00000180351414776755524460000009547216084173545861_);" d="M545.14,209.45
				c2.91,3.66,4.87,8.01,4.87,12.81c0,4.81-1.95,9.17-4.87,12.83c-2.89,3.63-6.72,6.57-10.7,8.87l-68.05,39.3l-104.06-60.07
				c-10.68-6.18-24.15-8.8-36.19-8.97c-12.11-0.18-25.52,2.06-36.52,7.66c-0.82,0.42-1.62,0.85-2.41,1.31l-153.56,88.66l-68.06-39.3
				c-3.98-2.29-7.81-5.23-10.7-8.87c-2.91-3.66-4.87-8-4.87-12.81c0-4.81,1.95-9.17,4.87-12.83c2.89-3.63,6.72-6.57,10.7-8.87
				l221.63-127.95c20.74-11.98,54.38-11.98,75.13,0l172.12,99.37C538.42,202.88,542.25,205.81,545.14,209.45z"/>
			
				<linearGradient id="SVGID_00000113343591133274531040000018111404145288167836_" gradientUnits="userSpaceOnUse" x1="49.9984" y1="359.8389" x2="194.2564" y2="359.8389">
				<stop  offset="0" style="stop-color:#3EB1C8;stop-opacity:0.2"/>
				<stop  offset="1" style="stop-color:#FFFFFF;stop-opacity:0.2"/>
			</linearGradient>
			<path style="fill:url(#SVGID_00000113343591133274531040000018111404145288167836_);" d="M194.26,346.85v121.97L65.57,394.51
				c-5.28-3.04-10.52-7.37-13.4-13.03c-1.38-2.7-2.17-5.61-2.17-8.65V250.86c0,4.81,1.95,9.15,4.87,12.81
				c2.89,3.64,6.72,6.57,10.7,8.87l68.06,39.3L194.26,346.85z"/>
		</g>
		<g>
			<path class="st0" d="M287.19,223.18c0.79-0.46,1.59-0.9,2.41-1.31"/>
			<path class="st0" d="M312.81,493.88c-0.79,0.46-1.6,0.9-2.41,1.31"/>
			<path class="st0" d="M466.38,283.26l-104.06-60.07c-10.68-6.18-24.15-8.8-36.19-8.97c-12.11-0.18-25.52,2.06-36.52,7.66
				l-2.41,1.31l-153.56,88.66"/>
			<path class="st0" d="M236.89,493.43V371.46l0.78,0.46c20.75,11.97,54.4,11.97,75.14,0l153.57-88.67l68.05-39.3
				c3.98-2.29,7.81-5.24,10.7-8.87c2.91-3.66,4.87-8.01,4.87-12.83"/>
			<path class="st0" d="M194.26,468.82V346.85l-60.63-35.01l-68.06-39.3c-3.98-2.29-7.81-5.23-10.7-8.87
				c-2.91-3.66-4.87-8-4.87-12.81"/>
			<path class="st0" d="M236.89,493.43l0.78,0.45c10.69,6.18,24.16,8.8,36.2,8.97c12.11,0.18,25.52-2.06,36.52-7.66l2.41-1.31
				l221.63-127.95c3.98-2.29,7.81-5.24,10.7-8.87c2.91-3.66,4.87-8.01,4.87-12.83V222.27c0-4.8-1.95-9.15-4.87-12.81
				c-2.89-3.64-6.72-6.57-10.7-8.87l-172.12-99.37c-20.74-11.98-54.38-11.98-75.13,0L65.57,229.17c-3.98,2.29-7.81,5.24-10.7,8.87
				c-2.91,3.66-4.87,8.01-4.87,12.83v121.97c0,3.04,0.79,5.95,2.17,8.65c2.88,5.66,8.12,9.99,13.4,13.03l128.69,74.31L236.89,493.43
				z"/>
		</g>
	</g>
</g>
<g id="Layer_2">
	<g>
		<path class="st4" d="M324.76,92.23c13.6,0,27.19,2.99,37.57,8.98l172.12,99.37c3.97,2.29,7.8,5.24,10.7,8.87
			c2.91,3.65,4.86,8.01,4.86,12.82v121.97c0,4.81-1.95,9.16-4.86,12.82c-2.9,3.63-6.73,6.58-10.7,8.87L312.81,493.89l-2.41,1.31
			c-10.59,5.4-23.42,7.68-35.18,7.68c-0.45,0-0.9,0-1.35-0.01c-12.04-0.18-25.51-2.81-36.2-8.97L65.56,394.51
			c-5.28-3.05-10.52-7.38-13.4-13.03c-1.37-2.7-2.16-5.61-2.16-8.66V250.86c0-4.81,1.95-9.16,4.86-12.82
			c2.9-3.64,6.73-6.58,10.7-8.87l221.63-127.96C297.56,95.22,311.16,92.23,324.76,92.23 M324.76,88.23
			c-14.88,0-28.93,3.38-39.57,9.52L63.56,225.7c-4.9,2.83-8.88,6.14-11.83,9.84c-3.75,4.71-5.73,10-5.73,15.31v121.97
			c0,3.57,0.87,7.09,2.6,10.47c3.6,7.07,10.13,11.89,14.97,14.68l172.12,99.37c10.25,5.92,23.79,9.3,38.14,9.51
			c0.47,0.01,0.94,0.01,1.41,0.01c13.59,0,26.73-2.88,36.99-8.11c0.03-0.02,0.06-0.03,0.09-0.05l2.41-1.31
			c0.03-0.02,0.06-0.03,0.09-0.05l221.63-127.96c4.9-2.83,8.88-6.14,11.83-9.84c3.75-4.71,5.73-10,5.73-15.31V222.27
			c0-5.31-1.98-10.6-5.73-15.31c-2.95-3.7-6.93-7.01-11.83-9.84L364.32,97.75C353.69,91.61,339.64,88.23,324.76,88.23L324.76,88.23z
			"/>
	</g>
</g>
</svg>
