<?xml version="1.0" encoding="utf-8"?>
<!-- Generator: Adobe Illustrator 27.9.0, SVG Export Plug-In . SVG Version: 6.00 Build 0)  -->
<svg version="1.1" xmlns="http://www.w3.org/2000/svg" xmlns:xlink="http://www.w3.org/1999/xlink" x="0px" y="0px"
	 viewBox="0 0 24 24" style="enable-background:new 0 0 24 24;" xml:space="preserve">
<style type="text/css">
	.st0{display:none;}
	.st1{display:inline;fill:none;stroke:#3EB1C8;stroke-width:4;stroke-linecap:round;}
	.st2{fill:#3EB1C8;}
	.st3{display:inline;}
	.st4{fill:url(#SVGID_1_);}
	.st5{fill:url(#SVGID_00000106130089952088289700000004873492740029877177_);}
	.st6{fill:url(#SVGID_00000123423476060056303470000005530690765402139573_);}
	.st7{fill:none;stroke:#3EB1C8;stroke-width:2;stroke-linecap:round;}
</style>
<g id="Layer_1" class="st0">
	<path class="st1" d="M-0.81-64.82c0.79-0.46,1.6-0.89,2.41-1.31"/>
	<path class="st1" d="M24.81,205.89c-0.79,0.46-1.6,0.89-2.41,1.31"/>
	<path class="st1" d="M178.38-4.75L74.32-64.82c-10.68-6.17-24.15-8.79-36.2-8.97C26.02-73.98,12.6-71.73,1.6-66.13l-2.41,1.31
		l-153.56,88.66"/>
	<line class="st1" x1="-51.11" y1="83.46" x2="-50.32" y2="83.92"/>
	<path class="st1" d="M-51.11,205.43V83.46l0.79,0.45c20.75,11.98,54.39,11.98,75.13,0L246.44-44.04c3.97-2.29,7.8-5.24,10.7-8.87
		c2.91-3.65,4.86-8.01,4.86-12.82"/>
	<path class="st1" d="M-93.75,180.81V58.85l-128.69-74.3c-3.97-2.29-7.8-5.24-10.7-8.87c-2.91-3.65-4.86-8.01-4.86-12.82"/>
	<path class="st1" d="M-50.32,205.89c10.68,6.17,24.15,8.79,36.2,8.97c12.11,0.18,25.53-2.06,36.53-7.66l2.41-1.31L246.44,77.93
		c3.97-2.29,7.8-5.24,10.7-8.87c2.91-3.65,4.86-8.01,4.86-12.82V-65.73c0-4.81-1.95-9.16-4.86-12.82c-2.9-3.63-6.73-6.58-10.7-8.87
		L74.32-186.79c-20.75-11.98-54.39-11.98-75.13,0L-222.44-58.83c-3.97,2.29-7.8,5.24-10.7,8.87c-2.91,3.65-4.86,8.01-4.86,12.82
		V84.82c0,3.05,0.79,5.96,2.16,8.66c2.88,5.66,8.12,9.98,13.4,13.03L-50.32,205.89z"/>
</g>
<g id="Layer_4">
	<path class="st2" d="M11.41,8.34L11.3,8.4C11.33,8.38,11.37,8.36,11.41,8.34z"/>
	<path class="st2" d="M23.62,7.58C23.45,7.36,23.22,7.16,22.94,7l-7.76-4.48c-0.56-0.32-1.29-0.5-2.06-0.5
		c-0.77,0-1.5,0.18-2.06,0.5l-10,5.77C0.78,8.45,0.55,8.65,0.38,8.87C0.13,9.17,0,9.53,0,9.89v5.5c0,0.25,0.06,0.49,0.18,0.72
		c0.18,0.35,0.48,0.65,0.89,0.89l7.76,4.48c0.54,0.31,1.25,0.49,1.98,0.5c0.02,0,0.05,0,0.07,0c0.7,0,1.38-0.15,1.91-0.42
		c0.01,0,0.01-0.01,0.02-0.01l0.11-0.06c0.01,0,0.01-0.01,0.02-0.01l10-5.77c0.28-0.16,0.51-0.36,0.69-0.58
		c0.25-0.31,0.38-0.66,0.38-1.03V8.6C24,8.24,23.87,7.89,23.62,7.58z M6.96,19.26l-5.4-3.12c-0.17-0.1-0.39-0.26-0.5-0.48
		c-0.05-0.09-0.07-0.18-0.07-0.27V10.9c0.09,0.07,0.19,0.14,0.3,0.2l3.07,1.77l2.6,1.5V19.26z M9.29,15.1l-0.41-0.23v5.5l-1.38-0.8
		v-5.5l-2.46-1.42l6.52-3.76l0,0c0.03-0.01,0.05-0.03,0.08-0.04l0.02-0.01c0,0,0,0,0,0c0.42-0.21,0.95-0.32,1.51-0.31
		c0.57,0.01,1.1,0.14,1.5,0.37l4.29,2.48l-6.52,3.77c-0.85,0.49-2.27,0.49-3.12,0L9.29,15.1z M23.01,14.11
		c0,0.14-0.05,0.28-0.16,0.41c-0.1,0.12-0.23,0.24-0.41,0.33l-10,5.77l0,0c-0.03,0.02-0.06,0.04-0.1,0.05l0,0
		c-0.42,0.21-0.96,0.32-1.52,0.31c-0.52-0.01-1.02-0.12-1.4-0.31v-4.91c1.01,0.41,2.38,0.35,3.29-0.18l6.92-4l0.02-0.01l3.06-1.76
		c0.11-0.06,0.21-0.13,0.3-0.2V14.11z M22.85,9.01c-0.1,0.12-0.23,0.24-0.41,0.33l-2.94,1.69l-4.56-2.63
		c-0.48-0.27-1.1-0.43-1.76-0.44c-0.65-0.01-1.28,0.12-1.77,0.37L11.3,8.4l0,0l-0.01,0l-6.79,3.92l-2.94-1.69
		c-0.17-0.1-0.31-0.21-0.41-0.33c-0.11-0.13-0.16-0.27-0.16-0.41c0-0.14,0.05-0.28,0.16-0.41c0.1-0.12,0.23-0.24,0.41-0.33l10-5.77
		c0.42-0.24,0.99-0.37,1.56-0.37c0.57,0,1.14,0.12,1.56,0.37l7.76,4.48c0.17,0.1,0.31,0.21,0.41,0.33c0.11,0.13,0.16,0.27,0.16,0.41
		S22.95,8.88,22.85,9.01z"/>
</g>
<g id="Layer_3" class="st0">
	<g id="XMLID_00000052092595242897378280000009635546222285681025_" class="st3">
		<g>
			<linearGradient id="SVGID_1_" gradientUnits="userSpaceOnUse" x1="-51.1064" y1="74.5648" x2="262.004" y2="74.5648">
				<stop  offset="4.528621e-07" style="stop-color:#FFFFFF;stop-opacity:0.2"/>
				<stop  offset="1" style="stop-color:#3EB1C8;stop-opacity:0.2"/>
			</linearGradient>
			<path class="st4" d="M262-65.73V56.23c0,4.81-1.95,9.17-4.87,12.83c-2.89,3.63-6.72,6.57-10.7,8.87L24.81,205.88l-2.41,1.31
				c-11,5.6-24.41,7.84-36.52,7.66c-12.05-0.17-25.51-2.8-36.2-8.97l-0.78-0.45V83.46l0.78,0.46c20.75,11.97,54.4,11.97,75.14,0
				L178.38-4.74l68.05-39.3c3.98-2.29,7.81-5.24,10.7-8.87C260.05-56.57,262-60.92,262-65.73z"/>
			
				<linearGradient id="SVGID_00000065071723780784398280000016786225138743532449_" gradientUnits="userSpaceOnUse" x1="-238.0016" y1="-85.9661" x2="262.004" y2="-85.9661">
				<stop  offset="0" style="stop-color:#3EB1C8;stop-opacity:0.2"/>
				<stop  offset="0.625" style="stop-color:#FFFFFF;stop-opacity:0.2"/>
				<stop  offset="1" style="stop-color:#3EB1C8;stop-opacity:0.2"/>
			</linearGradient>
			<path style="fill:url(#SVGID_00000065071723780784398280000016786225138743532449_);" d="M257.14-78.55
				c2.91,3.66,4.87,8.01,4.87,12.81c0,4.81-1.95,9.17-4.87,12.83c-2.89,3.63-6.72,6.57-10.7,8.87l-68.05,39.3L74.32-64.82
				c-10.68-6.18-24.15-8.8-36.19-8.97C26.02-73.97,12.6-71.73,1.6-66.13c-0.82,0.42-1.62,0.85-2.41,1.31l-153.56,88.66l-68.06-39.3
				c-3.98-2.29-7.81-5.23-10.7-8.87c-2.91-3.66-4.87-8-4.87-12.81s1.95-9.17,4.87-12.83c2.89-3.63,6.72-6.57,10.7-8.87L-0.81-186.79
				c20.74-11.98,54.38-11.98,75.13,0l172.12,99.37C250.42-85.12,254.25-82.19,257.14-78.55z"/>
			
				<linearGradient id="SVGID_00000134210820971570003250000009912397547727218847_" gradientUnits="userSpaceOnUse" x1="-238.0016" y1="71.8389" x2="-93.7436" y2="71.8389">
				<stop  offset="0" style="stop-color:#3EB1C8;stop-opacity:0.2"/>
				<stop  offset="1" style="stop-color:#FFFFFF;stop-opacity:0.2"/>
			</linearGradient>
			<path style="fill:url(#SVGID_00000134210820971570003250000009912397547727218847_);" d="M-93.74,58.85v121.97l-128.69-74.31
				c-5.28-3.04-10.52-7.37-13.4-13.03c-1.38-2.7-2.17-5.61-2.17-8.65V-37.14c0,4.81,1.95,9.15,4.87,12.81
				c2.89,3.64,6.72,6.57,10.7,8.87l68.06,39.3L-93.74,58.85z"/>
		</g>
		<g>
			<path class="st7" d="M-0.81-64.82c0.79-0.46,1.59-0.9,2.41-1.31"/>
			<path class="st7" d="M24.81,205.88c-0.79,0.46-1.6,0.9-2.41,1.31"/>
			<path class="st7" d="M178.38-4.74L74.32-64.82c-10.68-6.18-24.15-8.8-36.19-8.97C26.02-73.97,12.6-71.73,1.6-66.13l-2.41,1.31
				l-153.56,88.66"/>
			<path class="st7" d="M-51.11,205.43V83.46l0.78,0.46c20.75,11.97,54.4,11.97,75.14,0L178.38-4.74l68.05-39.3
				c3.98-2.29,7.81-5.24,10.7-8.87c2.91-3.66,4.87-8.01,4.87-12.83"/>
			<path class="st7" d="M-93.74,180.82V58.85l-60.63-35.01l-68.06-39.3c-3.98-2.29-7.81-5.23-10.7-8.87
				c-2.91-3.66-4.87-8-4.87-12.81"/>
			<path class="st7" d="M-51.11,205.43l0.78,0.45c10.69,6.18,24.16,8.8,36.2,8.97c12.11,0.18,25.52-2.06,36.52-7.66l2.41-1.31
				L246.44,77.93c3.98-2.29,7.81-5.24,10.7-8.87c2.91-3.66,4.87-8.01,4.87-12.83V-65.73c0-4.8-1.95-9.15-4.87-12.81
				c-2.89-3.64-6.72-6.57-10.7-8.87L74.32-186.79c-20.74-11.98-54.38-11.98-75.13,0L-222.43-58.83c-3.98,2.29-7.81,5.24-10.7,8.87
				c-2.91,3.66-4.87,8.01-4.87,12.83V84.83c0,3.04,0.79,5.95,2.17,8.65c2.88,5.66,8.12,9.99,13.4,13.03l128.69,74.31L-51.11,205.43z
				"/>
		</g>
	</g>
</g>
<g id="Layer_2" class="st0">
	<g class="st3">
		<path class="st2" d="M36.76-195.77c13.6,0,27.19,2.99,37.57,8.98l172.12,99.37c3.97,2.29,7.8,5.24,10.7,8.87
			c2.91,3.65,4.86,8.01,4.86,12.82V56.24c0,4.81-1.95,9.16-4.86,12.82c-2.9,3.63-6.73,6.58-10.7,8.87L24.81,205.89l-2.41,1.31
			c-10.59,5.4-23.42,7.68-35.18,7.68c-0.45,0-0.9,0-1.35-0.01c-12.04-0.18-25.51-2.81-36.2-8.97l-172.12-99.37
			c-5.28-3.05-10.52-7.38-13.4-13.03c-1.37-2.7-2.16-5.61-2.16-8.66V-37.14c0-4.81,1.95-9.16,4.86-12.82
			c2.9-3.64,6.73-6.58,10.7-8.87L-0.81-186.79C9.56-192.78,23.16-195.77,36.76-195.77 M36.76-203.77
			c-15.57,0-30.34,3.57-41.57,10.06L-226.44-65.76c-5.33,3.08-9.69,6.72-12.96,10.82c-4.32,5.42-6.6,11.58-6.6,17.8V84.82
			c0,4.21,1.02,8.34,3.03,12.29c3.2,6.29,8.92,11.94,16.53,16.33l172.12,99.37c10.83,6.25,25.06,9.82,40.08,10.04
			c0.49,0.01,0.98,0.01,1.47,0.01c14.21,0,27.99-3.04,38.81-8.55c0.06-0.03,0.12-0.06,0.18-0.1l2.41-1.31
			c0.06-0.03,0.12-0.07,0.19-0.1L250.44,84.86c5.33-3.08,9.69-6.72,12.96-10.81c4.32-5.42,6.6-11.58,6.6-17.8V-65.73
			c0-6.22-2.28-12.38-6.6-17.8c-3.26-4.1-7.62-7.73-12.96-10.81L78.32-193.72C67.09-200.2,52.33-203.77,36.76-203.77L36.76-203.77z"
			/>
	</g>
</g>
</svg>
